<svg width="32" height="32" viewBox="0 0 32 32" fill="none" xmlns="http://www.w3.org/2000/svg">
<path d="M10.0625 20.9375C11.0239 20.9375 11.9459 20.5556 12.6258 19.8758C13.3056 19.1959 13.6875 18.2739 13.6875 17.3125C13.6875 16.3511 13.3056 15.4291 12.6258 14.7492C11.9459 14.0694 11.0239 13.6875 10.0625 13.6875C9.10109 13.6875 8.17906 14.0694 7.49924 14.7492C6.81942 15.4291 6.4375 16.3511 6.4375 17.3125C6.4375 18.2739 6.81942 19.1959 7.49924 19.8758C8.17906 20.5556 9.10109 20.9375 10.0625 20.9375ZM10.0625 15.5C10.5432 15.5 11.0042 15.691 11.3441 16.0309C11.684 16.3708 11.875 16.8318 11.875 17.3125C11.875 17.7932 11.684 18.2542 11.3441 18.5941C11.0042 18.934 10.5432 19.125 10.0625 19.125C9.58179 19.125 9.12078 18.934 8.78087 18.5941C8.44096 18.2542 8.25 17.7932 8.25 17.3125C8.25 16.8318 8.44096 16.3708 8.78087 16.0309C9.12078 15.691 9.58179 15.5 10.0625 15.5ZM14.5938 22.75H5.53125C4.9362 22.75 4.34697 22.8672 3.79721 23.0949C3.24746 23.3226 2.74794 23.6564 2.32717 24.0772C1.90641 24.4979 1.57264 24.9975 1.34492 25.5472C1.11721 26.097 1 26.6862 1 27.2812C1 28.0023 1.28644 28.6938 1.7963 29.2037C2.30617 29.7136 2.99769 30 3.71875 30H16.4062C17.1273 30 17.8188 29.7136 18.3287 29.2037C18.8386 28.6938 19.125 28.0023 19.125 27.2812C19.125 26.0795 18.6476 24.9269 17.7978 24.0772C16.9481 23.2274 15.7955 22.75 14.5938 22.75ZM16.4062 28.1875H3.71875C3.4784 28.1875 3.24789 28.092 3.07793 27.9221C2.90798 27.7521 2.8125 27.5216 2.8125 27.2812C2.8125 26.5602 3.09894 25.8687 3.6088 25.3588C4.11867 24.8489 4.81019 24.5625 5.53125 24.5625H14.5938C15.3148 24.5625 16.0063 24.8489 16.5162 25.3588C17.0261 25.8687 17.3125 26.5602 17.3125 27.2812C17.3125 27.5216 17.217 27.7521 17.0471 27.9221C16.8771 28.092 16.6466 28.1875 16.4062 28.1875ZM30 5.53125V14.5938C30 15.7955 29.5226 16.9481 28.6728 17.7978C27.8231 18.6476 26.6705 19.125 25.4688 19.125H20.4064L17.0479 22.4854C16.9636 22.5695 16.8635 22.6361 16.7534 22.6815C16.6433 22.727 16.5253 22.7502 16.4062 22.75C16.2874 22.7505 16.1697 22.7271 16.0601 22.6811C15.8943 22.6126 15.7527 22.4965 15.653 22.3474C15.5533 22.1984 15.5 22.0231 15.5 21.8438V18.2188C15.5 17.9784 15.5955 17.7479 15.7654 17.5779C15.9354 17.408 16.1659 17.3125 16.4062 17.3125C16.6466 17.3125 16.8771 17.408 17.0471 17.5779C17.217 17.7479 17.3125 17.9784 17.3125 18.2188V19.6561L19.3896 17.5771C19.4739 17.493 19.574 17.4264 19.6841 17.381C19.7942 17.3355 19.9122 17.3123 20.0312 17.3125H25.4688C26.1898 17.3125 26.8813 17.0261 27.3912 16.5162C27.9011 16.0063 28.1875 15.3148 28.1875 14.5938V5.53125C28.1875 4.81019 27.9011 4.11867 27.3912 3.6088C26.8813 3.09894 26.1898 2.8125 25.4688 2.8125H12.7812C12.0602 2.8125 11.3687 3.09894 10.8588 3.6088C10.3489 4.11867 10.0625 4.81019 10.0625 5.53125V10.9688C10.0625 11.2091 9.96702 11.4396 9.79707 11.6096C9.62711 11.7795 9.3966 11.875 9.15625 11.875C8.9159 11.875 8.68539 11.7795 8.51543 11.6096C8.34548 11.4396 8.25 11.2091 8.25 10.9688V5.53125C8.25 4.32949 8.7274 3.17695 9.57717 2.32717C10.4269 1.4774 11.5795 1 12.7812 1H25.4688C26.6705 1 27.8231 1.4774 28.6728 2.32717C29.5226 3.17695 30 4.32949 30 5.53125ZM17.5771 13.4229L13.9521 9.79788C13.8677 9.71369 13.8008 9.61369 13.7551 9.50359C13.7094 9.39349 13.6859 9.27545 13.6859 9.15625C13.6859 9.03705 13.7094 8.91901 13.7551 8.80891C13.8008 8.69881 13.8677 8.59881 13.9521 8.51462C14.0363 8.43023 14.1363 8.36327 14.2464 8.31758C14.3565 8.2719 14.4745 8.24838 14.5938 8.24838C14.713 8.24838 14.831 8.2719 14.9411 8.31758C15.0512 8.36327 15.1512 8.43023 15.2354 8.51462L18.2188 11.4998L23.0146 6.70212C23.0988 6.61773 23.1988 6.55077 23.3089 6.50508C23.419 6.4594 23.537 6.43588 23.6562 6.43588C23.7755 6.43588 23.8935 6.4594 24.0036 6.50508C24.1137 6.55077 24.2137 6.61773 24.2979 6.70212C24.3823 6.78631 24.4492 6.88631 24.4949 6.99641C24.5406 7.10651 24.5641 7.22455 24.5641 7.34375C24.5641 7.46295 24.5406 7.58099 24.4949 7.69109C24.4492 7.80119 24.3823 7.90119 24.2979 7.98538L18.8604 13.4229C18.7761 13.507 18.676 13.5736 18.5659 13.619C18.4558 13.6645 18.3378 13.6877 18.2188 13.6875C18.0997 13.6877 17.9817 13.6645 17.8716 13.619C17.7615 13.5736 17.6614 13.507 17.5771 13.4229Z" fill="black"/>
</svg>
