<svg width="28" height="28" viewBox="0 0 28 28" fill="none" xmlns="http://www.w3.org/2000/svg">
<path opacity="0.5" d="M10.1025 7.5C10.1183 4.67246 10.2437 3.14118 11.2426 2.14228C12.3849 1 14.2233 1 17.9003 1H19.2003C22.8772 1 24.7158 1 25.858 2.14228C27.0003 3.28457 27.0003 5.12304 27.0003 8.8V19.2C27.0003 22.8769 27.0003 24.7154 25.858 25.8577C24.7158 27 22.8772 27 19.2003 27H17.9003C14.2233 27 12.3849 27 11.2426 25.8577C10.2437 24.8588 10.1183 23.3275 10.1025 20.5" stroke="black" stroke-width="2" stroke-linecap="round"/>
<path d="M17.9 13.9996H1M1 13.9996L5.55 10.0996M1 13.9996L5.55 17.8996" stroke="black" stroke-width="2" stroke-linecap="round" stroke-linejoin="round"/>
</svg>
