<svg width="32" height="32" viewBox="0 0 32 32" fill="none" xmlns="http://www.w3.org/2000/svg">
<path d="M23.6311 17.1826C22.2726 17.1826 20.9445 17.5855 19.8149 18.3402C18.6854 19.095 17.805 20.1678 17.2851 21.4229C16.7652 22.678 16.6291 24.0591 16.8942 25.3916C17.1592 26.724 17.8134 27.9479 18.7741 28.9086C19.7347 29.8692 20.9586 30.5234 22.291 30.7884C23.6235 31.0535 25.0046 30.9174 26.2597 30.3976C27.5148 29.8777 28.5876 28.9973 29.3424 27.8677C30.0972 26.7381 30.5 25.4101 30.5 24.0515C30.4905 22.2327 29.7638 20.4911 28.4777 19.205C27.1915 17.9189 25.4499 17.1921 23.6311 17.1826ZM24.8362 24.6541C24.6493 24.6495 24.4651 24.6085 24.2939 24.5335L21.703 27.1245C21.5577 27.2683 21.3648 27.354 21.1607 27.3655C21.0572 27.3755 20.9529 27.3586 20.8578 27.3163C20.7628 27.2741 20.6803 27.208 20.6184 27.1245C20.4731 26.9693 20.3923 26.7646 20.3923 26.552C20.3923 26.3395 20.4731 26.1348 20.6184 25.9796L23.2093 23.3887C23.1407 23.2155 23.1 23.0325 23.0888 22.8464C23.0613 22.5592 23.0936 22.2693 23.1837 21.9951C23.2737 21.7209 23.4195 21.4683 23.612 21.2532C23.8044 21.0381 24.0393 20.8652 24.3018 20.7454C24.5644 20.6255 24.8489 20.5613 25.1374 20.5568C25.3243 20.5614 25.5085 20.6023 25.6797 20.6773C25.8002 20.6773 25.8002 20.7978 25.74 20.8581L24.5349 22.0029C24.507 22.017 24.4836 22.0385 24.4672 22.0651C24.4508 22.0917 24.4422 22.1223 24.4422 22.1535C24.4422 22.1848 24.4508 22.2154 24.4672 22.242C24.4836 22.2686 24.507 22.2901 24.5349 22.3042L25.3182 23.0875C25.3396 23.115 25.367 23.1373 25.3983 23.1526C25.4297 23.1679 25.4641 23.1759 25.499 23.1759C25.5338 23.1759 25.5682 23.1679 25.5996 23.1526C25.6309 23.1373 25.6583 23.115 25.6797 23.0875L26.8245 21.9426C26.8848 21.8824 27.0656 21.8824 27.0656 22.0029C27.1281 22.1779 27.1686 22.3601 27.1861 22.5452C27.1815 22.8416 27.1157 23.134 26.9929 23.4038C26.87 23.6736 26.6926 23.9151 26.472 24.1131C26.2513 24.3112 25.9921 24.4614 25.7106 24.5545C25.4291 24.6476 25.1314 24.6815 24.8362 24.6541Z" fill="#131313"/>
<path d="M13.629 17.5454C17.9217 17.5454 21.4017 14.0655 21.4017 9.77271C21.4017 5.47996 17.9217 2 13.629 2C9.33625 2 5.85629 5.47996 5.85629 9.77271C5.85629 14.0655 9.33625 17.5454 13.629 17.5454Z" fill="#131313"/>
<path d="M15.7378 30.8008C17.0634 30.8008 16.3403 29.897 16.3403 29.897C15.01 28.2399 14.2871 26.1774 14.2917 24.0524C14.2853 22.7205 14.5734 21.4037 15.1353 20.1961C15.1606 20.1272 15.2019 20.0652 15.2558 20.0154C15.6776 19.1718 14.834 19.1116 14.834 19.1116C14.4546 19.0615 14.0718 19.0413 13.6892 19.0513C10.8524 19.0624 8.11342 20.0896 5.96892 21.9467C3.82443 23.8038 2.41636 26.3678 2 29.1739C2 29.7764 2.18076 30.861 4.04862 30.861H15.557C15.6776 30.8008 15.6776 30.8008 15.7378 30.8008Z" fill="#131313"/>
</svg>
