<svg width="48" height="48" viewBox="0 0 48 48" fill="none" xmlns="http://www.w3.org/2000/svg">
<g clip-path="url(#clip0_6_1477)">
<path d="M6.02456 16.257C6.59049 16.257 7.04918 15.7982 7.04918 15.2324V9.94645C7.04918 8.34898 8.34892 7.04924 9.94647 7.04924H16.1758C16.7417 7.04924 17.2005 6.59056 17.2005 6.02462C17.2005 5.45869 16.7417 5 16.1758 5H9.94647C7.21902 5 4.99994 7.21891 4.99994 9.94645V15.2324C4.99994 15.7982 5.45871 16.257 6.02456 16.257ZM38.0534 5H31.824C31.2582 5 30.7994 5.45869 30.7994 6.02462C30.7994 6.59056 31.2582 7.04924 31.824 7.04924H38.0534C39.651 7.04924 40.9507 8.34898 40.9507 9.94645V15.2324C40.9507 15.7982 41.4094 16.257 41.9753 16.257C42.5412 16.257 42.9999 15.7982 42.9999 15.2324V9.94645C42.9999 7.21899 40.7809 5 38.0534 5ZM16.1758 40.9508H9.94647C8.34892 40.9508 7.04918 39.651 7.04918 38.0535V32.7675C7.04918 32.2017 6.59049 31.7429 6.02456 31.7429C5.45863 31.7429 4.99994 32.2017 4.99994 32.7675V38.0535C4.99994 40.7809 7.21893 43 9.94647 43H16.1758C16.7417 43 17.2005 42.5413 17.2005 41.9754C17.2005 41.4094 16.7417 40.9508 16.1758 40.9508ZM41.9753 31.7429C41.4094 31.7429 40.9507 32.2017 40.9507 32.7675V38.0535C40.9507 39.651 39.651 40.9508 38.0534 40.9508H31.824C31.2582 40.9508 30.7994 41.4094 30.7994 41.9754C30.7994 42.5413 31.2582 43 31.824 43H38.0534C40.7809 43 42.9999 40.781 42.9999 38.0535V32.7675C42.9999 32.2017 42.5412 31.7429 41.9753 31.7429Z" fill="#FFD600"/>
<g clip-path="url(#clip1_6_1477)">
<path d="M33.1666 16H14.8334C13.8253 16 13 16.8503 13 17.889V31.111C13 32.1497 13.8253 33 14.8334 33H33.1666C34.1747 33 35 32.1497 35 31.111V17.889C35 16.8503 34.1747 16 33.1666 16ZM19.4166 19.7777C20.4302 19.7777 21.25 20.6234 21.25 21.6667C21.25 22.7099 20.4302 23.5556 19.4166 23.5556C18.4032 23.5556 17.5834 22.7099 17.5834 21.6667C17.5834 20.6234 18.4032 19.7777 19.4166 19.7777ZM23.0834 29.2223H15.75V27.3342C15.7501 26.8333 15.9434 26.3529 16.2872 25.9987C16.631 25.6446 17.0972 25.4456 17.5834 25.4455L21.25 25.4444C21.4908 25.4443 21.7292 25.4931 21.9517 25.588C22.1742 25.6829 22.3763 25.822 22.5466 25.9975C22.7169 26.1729 22.8519 26.3811 22.944 26.6104C23.0361 26.8396 23.0835 27.0852 23.0834 27.3333V29.2223ZM32.25 29.2223H25.5V27.7035H32.25V29.2223ZM32.25 25.4444H25.9166V24H32.25V25.4444ZM32.25 21.6667H24.0834V20H32.25V21.6667Z" fill="#FFD600"/>
</g>
</g>
<defs>
<clipPath id="clip0_6_1477">
<rect width="48" height="48" fill="white"/>
</clipPath>
<clipPath id="clip1_6_1477">
<rect width="24" height="24" fill="white" transform="translate(12 12)"/>
</clipPath>
</defs>
</svg>
