<svg width="1999" height="2732" viewBox="0 0 1999 2732" fill="none" xmlns="http://www.w3.org/2000/svg">
<path d="M1772.45 359.948L1772.58 360.28L1974.32 349.245L1817.64 470.554L1817.34 470.786L1817.48 471.137L1889.76 649.589L1738.61 552.885L1738.26 552.663L1737.98 552.962C1686.41 607.314 1620.53 665.435 1558.96 711.202C1528.18 734.085 1498.48 753.874 1472.19 768.559C1446.46 782.932 1424.04 792.389 1407.09 795.095L1615.38 482.33L1615.67 481.897L1615.22 481.625L1446.11 378.137L1647.84 367.102L1647.94 366.759L1700.12 181.398L1772.45 359.948Z" fill="#141A46" stroke="#141A46"/>
<path d="M1743.56 417.533L1743.7 417.865L1828.61 413.22L1762.83 464.143L1762.54 464.376L1762.68 464.727L1793.02 539.631L1729.62 499.074L1729.28 498.851L1728.99 499.151C1707.12 522.208 1679.17 546.866 1653.05 566.282C1639.99 575.99 1627.39 584.382 1616.25 590.607C1605.66 596.519 1596.43 600.451 1589.37 601.724L1677.4 469.529L1677.69 469.097L1677.25 468.825L1606.25 425.382L1691.16 420.738L1691.26 420.394L1713.18 342.528L1743.56 417.533Z" fill="#141A46" stroke="#141A46"/>
<path d="M1700.04 179.853L1772.91 359.759L1975.89 348.656L1817.95 470.947L1890.82 650.853L1738.34 553.304C1635.17 662.052 1474.73 785.863 1406.05 795.759L1614.96 482.05L1444.48 377.724L1647.46 366.621L1700.04 179.853Z" fill="#141A46"/>
<path d="M1741.71 418.276L1742.38 419.932L1822.31 415.56L1761.61 462.555L1760.11 463.714L1760.82 465.469L1788.81 534.558L1730.7 497.382L1728.96 496.269L1727.54 497.767C1705.75 520.737 1677.88 545.319 1651.85 564.67C1638.84 574.344 1626.32 582.683 1615.27 588.853C1607.1 593.419 1599.85 596.724 1593.88 598.545L1679.07 470.631L1680.51 468.469L1678.29 467.112L1612.78 427.021L1692.7 422.65L1693.19 420.93L1713.52 348.69L1741.71 418.276Z" fill="#141A46" stroke="#FFCF86" stroke-width="5"/>
<path d="M961.781 2145.85H647.793C538.259 2145.85 449.464 2057.06 449.464 1947.52C449.464 1837.99 538.259 1749.2 647.793 1749.2H961.781V2145.85Z" fill="#141A46"/>
<path d="M785.375 858.18C918.624 861.519 1029.92 865.541 1122.92 865.671C1485.5 830.872 1566.44 744.427 1731.84 595.659C1731.84 595.659 1857.49 1183.5 1485.34 1445.15C1113.19 1706.8 1423.29 1242.38 802.431 1242.38L785.375 858.18Z" fill="#141A46"/>
<path d="M945.488 1260.15H604.544C241.962 1294.95 103.896 1491.57 10.477 1640.08C10.477 1640.08 -5.09723 1207.15 86.6042 1060.42C178.306 913.696 324.115 816.048 945.488 863.49L945.488 1260.15Z" fill="#141A46"/>
<path d="M642.965 2581.75C472.44 2581.75 308.899 2514.4 188.32 2394.52C67.7407 2274.63 -4.74368e-06 2112.04 0 1942.49C4.74368e-06 1772.95 67.7407 1610.35 188.32 1490.47C308.899 1370.58 472.44 1303.23 642.965 1303.23V1699.4C578.119 1699.4 515.929 1725.01 470.076 1770.6C424.223 1816.19 398.463 1878.02 398.463 1942.49C398.463 2006.97 424.223 2068.8 470.076 2114.39C515.929 2159.97 578.119 2185.59 642.965 2185.59V2581.75Z" fill="#141A46"/>
<path d="M945.372 863.534C1116.49 863.534 1280.61 931.12 1401.61 1051.42C1522.61 1171.73 1590.59 1334.9 1590.59 1505.03C1590.59 1675.17 1522.61 1838.33 1401.61 1958.64C1280.61 2078.94 1116.49 2146.53 945.372 2146.53V1749.82C1010.67 1749.82 1073.3 1724.03 1119.47 1678.13C1165.64 1632.22 1191.59 1569.95 1191.59 1505.03C1191.59 1440.11 1165.64 1377.84 1119.47 1331.93C1073.3 1286.03 1010.67 1260.24 945.372 1260.24V863.534Z" fill="#141A46"/>
<path d="M635.805 2184.77H949.793C1059.33 2184.77 1148.12 2273.56 1148.12 2383.1C1148.12 2492.63 1059.33 2581.43 949.793 2581.43H635.805V2184.77Z" fill="#141A46"/>
<path d="M635.762 1303.23H949.75C1059.28 1303.23 1148.08 1392.03 1148.08 1501.56C1148.08 1611.1 1059.28 1699.89 949.75 1699.89H635.762V1303.23Z" fill="#141A46"/>
<path d="M1438.29 1902.44L1737.14 2346.13C1798.58 2437.34 1774.18 2560.69 1682.64 2621.64C1591.1 2682.59 1467.09 2658.06 1405.65 2566.85L1106.8 2123.15L1438.29 1902.44Z" fill="#141A46"/>
<path d="M372.55 345.425L352.939 337.077L349.36 458.464C324.068 461.897 313.796 491.722 341.5 512.324C299.822 558.799 300.97 599.913 303.757 673.702C347.475 708.153 373.288 707.709 421.187 679.29C421.563 594.396 413.064 552.61 383.892 512.324C401.942 505.773 410.742 462.26 374.518 458.464L372.55 345.425Z" fill="#141A46" stroke="#FFCF86"/>
<path d="M801.136 0C636.972 185.382 514.206 261.493 211.113 321.053C364.88 390.014 431.731 432.913 494.507 521.531H801.136V0Z" fill="#141A46"/>
<path d="M801.129 0C965.294 185.382 1088.06 261.493 1391.15 321.053C1237.39 390.014 1170.53 432.913 1107.76 521.531C1009.1 521.531 924.594 522.279 801.129 521.531V0Z" fill="#141A46"/>
<path d="M801.271 67.0635C678.763 205.405 588.113 277.56 361.93 322.007C476.678 373.469 525.602 390.125 572.449 456.256C659.197 430.072 709.135 421.84 801.271 421.281V67.0635Z" fill="#141A46" stroke="#FFCF86" stroke-width="5"/>
<path d="M804.764 67.0635C927.272 205.405 1017.92 277.56 1244.11 322.007C1129.36 373.469 1080.43 390.125 1033.59 456.256C946.838 430.072 896.9 421.84 804.764 421.281V67.0635Z" fill="#141A46" stroke="#FFCF86" stroke-width="5"/>
<path d="M1109.09 521.428C1109.09 561.622 1101.12 601.422 1085.65 638.556C1070.18 675.691 1047.51 709.432 1018.92 737.853C990.334 766.274 956.397 788.819 919.048 804.201C881.698 819.583 841.667 827.499 801.24 827.499C760.813 827.499 720.782 819.582 683.433 804.201C646.083 788.819 612.147 766.274 583.56 737.853C554.974 709.432 532.299 675.691 516.828 638.556C501.357 601.422 493.395 561.622 493.395 521.428L801.24 521.428H1109.09Z" fill="#141A46"/>
<path d="M802.562 133.499C810.727 133.499 817.321 140.075 817.321 148.158C817.321 156.24 810.727 162.816 802.562 162.816C794.398 162.816 787.805 156.24 787.805 148.158C787.805 140.076 794.398 133.499 802.562 133.499Z" fill="#141A46" stroke="#FFCF86" stroke-width="5"/>
</svg>
